<svg width="600" height="600" viewBox="0 0 600 600" fill="none" xmlns="http://www.w3.org/2000/svg">
<path d="M600 300C600 465.685 465.685 600 300 600C134.315 600 0 465.685 0 300C0 134.315 134.315 0 300 0C465.685 0 600 134.315 600 300Z" fill="black"/>
<path d="M185.522 343.754L206.735 322.541L277.446 393.252L256.233 414.465L185.522 343.754Z" fill="#FFFF00"/>
<path d="M185.522 256.073L206.735 234.86L277.446 305.571L256.233 326.784L185.522 256.073Z" fill="#FF00FF"/>
<path d="M141.681 387.595L162.894 366.382L184.108 387.595L162.894 408.808L141.681 387.595Z" fill="#00FFFF"/>
<path d="M256.233 284.357L383.512 157.078L404.725 178.291L277.446 305.571L256.233 284.357Z" fill="#FF00FF"/>
<path d="M256.233 372.039L454.222 174.049L475.436 195.262L277.446 393.252L256.233 372.039Z" fill="#FFFF00"/>
<path d="M256.233 459.72L524.933 191.019L546.146 212.233L277.446 480.933L256.233 459.72Z" fill="#00FFFF"/>
<path d="M141.681 299.914L162.894 278.701L184.108 299.914L162.894 321.127L141.681 299.914Z" fill="#FFFF00"/>
<path d="M141.681 212.233L162.894 191.019L184.108 212.233L162.894 233.446L141.681 212.233Z" fill="#FF00FF"/>
<path d="M185.522 431.436L206.735 410.222L277.446 480.933L256.233 502.146L185.522 431.436Z" fill="#00FFFF"/>
</svg>
